<?xml version="1.0"?>
<!--Icons from directory ""-->
<svg xmlns="http://www.w3.org/2000/svg" width="300" height="324" viewBox="0 0 300 324"><svg xmlns:rdf="http://www.w3.org/1999/02/22-rdf-syntax-ns#" xmlns:cc="http://creativecommons.org/ns#" xmlns:dc="http://purl.org/dc/elements/1.1/" id="logo-ipartek-especial" xml:space="preserve" height="108" width="300" version="1.1" y="0" x="0px" viewBox="0 0 305 110"><style id="logo-ipartek-especial-style4" type="text/css">	.st0{fill:#72C7DC;}	.st1{font-family:'Calibri';}	.st2{font-size:20px;}	.st3{fill:#0C2661;}</style><g id="logo-ipartek-especial-Capa_1" transform="translate(-219.37 -82.092)"><text id="logo-ipartek-especial-XMLID_1_" font-size="20px" font-family="Calibri" transform="matrix(.9558 0 0 1 311 186.87)"><tspan id="logo-ipartek-especial-tspan8" y="0" x="0" class="st0 st1 st2" fill="#72c7dc">Ipar</tspan><tspan id="logo-ipartek-especial-tspan10" y="0" x="32.099998" class="st3 st1 st2" fill="#0c2661">tek</tspan></text><g id="logo-ipartek-especial-XMLID_2_"><g id="logo-ipartek-especial-XMLID_3_" fill="#72c7dc"><rect id="logo-ipartek-especial-XMLID_4_" transform="matrix(.7071 -.7071 .7071 .7071 29.771 290.87)" width="56" y="99.5" x="338" height="20" class="st0"/><rect id="logo-ipartek-especial-XMLID_5_" transform="matrix(-.7071 -.7071 .7071 -.7071 529.52 488.83)" width="56" y="124.8" x="338" height="20" class="st0"/></g><g id="logo-ipartek-especial-XMLID_6_"><g id="logo-ipartek-especial-XMLID_32_" fill="#0c2661"><rect id="logo-ipartek-especial-XMLID_34_" transform="matrix(-.7071 .7071 -.7071 -.7071 786.16 -5.6398)" width="56" y="150" x="366.3" height="20" class="st3"/><rect id="logo-ipartek-especial-XMLID_33_" transform="matrix(.7071 .7071 -.7071 .7071 210.76 -239.31)" width="56" y="124.8" x="366.3" height="20" class="st3"/></g></g></g></g></svg><svg xmlns:rdf="http://www.w3.org/1999/02/22-rdf-syntax-ns#" xmlns:cc="http://creativecommons.org/ns#" xmlns:dc="http://purl.org/dc/elements/1.1/" id="logo-ipartek-servicios-informaticos" xml:space="preserve" height="108" width="300" version="1.1" y="108" x="0px" viewBox="0 0 305 110"><style id="logo-ipartek-servicios-informaticos-style4" type="text/css">	.st0{fill:#72C7DC;}	.st1{font-family:'Calibri';}	.st2{font-size:73.1793px;}	.st3{fill:#0C2661;}	.st4{font-family:'Arial';}	.st5{font-size:17px;}</style><g id="logo-ipartek-servicios-informaticos-Capa_1" transform="matrix(1.0095 0 0 1.007 -120.3 -81.223)"><text id="logo-ipartek-servicios-informaticos-XMLID_1_" font-size="73.179px" font-family="Calibri" transform="matrix(1.084 0 0 1 113.5 139.39)"><tspan id="logo-ipartek-servicios-informaticos-tspan8" y="0" x="0" class="st0 st1 st2" fill="#72c7dc">Ipar</tspan><tspan id="logo-ipartek-servicios-informaticos-tspan10" y="0" x="117.5" class="st3 st1 st2" fill="#0c2661">tek</tspan></text><g id="logo-ipartek-servicios-informaticos-XMLID_2_"><g id="logo-ipartek-servicios-informaticos-XMLID_3_" fill="#72c7dc"><rect id="logo-ipartek-servicios-informaticos-XMLID_4_" transform="matrix(.7071 -.7071 .7071 .7071 29.771 290.87)" width="56" y="99.5" x="338" height="20" class="st0"/><rect id="logo-ipartek-servicios-informaticos-XMLID_5_" transform="matrix(-.7071 -.7071 .7071 -.7071 529.52 488.83)" width="56" y="124.8" x="338" height="20" class="st0"/></g><g id="logo-ipartek-servicios-informaticos-XMLID_6_"><g id="logo-ipartek-servicios-informaticos-XMLID_32_" fill="#0c2661"><rect id="logo-ipartek-servicios-informaticos-XMLID_34_" transform="matrix(-.7071 .7071 -.7071 -.7071 786.16 -5.6398)" width="56" y="150" x="366.3" height="20" class="st3"/><rect id="logo-ipartek-servicios-informaticos-XMLID_33_" transform="matrix(.7071 .7071 -.7071 .7071 210.76 -239.31)" width="56" y="124.8" x="366.3" height="20" class="st3"/></g></g></g><text id="logo-ipartek-servicios-informaticos-XMLID_9_" transform="matrix(.9558 0 0 1 188.61 161.62)" font-size="17px" font-family="Arial" class="st3 st4 st5" fill="#0c2661">servicios inform&#xE1;ticos</text></g></svg><svg xmlns:rdf="http://www.w3.org/1999/02/22-rdf-syntax-ns#" xmlns:cc="http://creativecommons.org/ns#" xmlns:dc="http://purl.org/dc/elements/1.1/" id="logo-ipartek" xml:space="preserve" height="108" width="300" version="1.1" y="216" x="0px" viewBox="0 0 305 110"><style id="logo-ipartek-style4" type="text/css">	.st0{fill:#72C7DC;}	.st1{font-family:'Calibri';}	.st2{font-size:73.1793px;}	.st3{fill:#0C2661;}	.st4{fill:#666666;}	.st5{font-family:'ArialMT';}	.st6{font-size:19px;}</style><g id="logo-ipartek-Capa_1" transform="translate(-117.56 -76.875)"><text id="logo-ipartek-XMLID_1_" font-size="73.179px" font-family="Calibri" transform="matrix(1.084 0 0 1 113.5 139.39)"><tspan id="logo-ipartek-tspan8" y="0" x="0" class="st0 st1 st2" fill="#72c7dc">Ipar</tspan><tspan id="logo-ipartek-tspan10" y="0" x="117.5" class="st3 st1 st2" fill="#0c2661">tek</tspan></text><g id="logo-ipartek-XMLID_2_"><g id="logo-ipartek-XMLID_3_" fill="#72c7dc"><rect id="logo-ipartek-XMLID_4_" transform="matrix(.7071 -.7071 .7071 .7071 29.771 290.87)" width="56" y="99.5" x="338" height="20" class="st0"/><rect id="logo-ipartek-XMLID_5_" transform="matrix(-.7071 -.7071 .7071 -.7071 529.52 488.83)" width="56" y="124.8" x="338" height="20" class="st0"/></g><g id="logo-ipartek-XMLID_6_"><g id="logo-ipartek-XMLID_32_" fill="#0c2661"><rect id="logo-ipartek-XMLID_34_" transform="matrix(-.7071 .7071 -.7071 -.7071 786.16 -5.6398)" width="56" y="150" x="366.3" height="20" class="st3"/><rect id="logo-ipartek-XMLID_33_" transform="matrix(.7071 .7071 -.7071 .7071 210.76 -239.31)" width="56" y="124.8" x="366.3" height="20" class="st3"/></g></g></g><text id="logo-ipartek-XMLID_9_" transform="matrix(.9558 0 0 1 181.61 161.62)" font-size="19px" font-family="ArialMT" class="st4 st5 st6" fill="#666666">formaci&#xF3;n &amp; empleo</text></g></svg></svg>
